<svg xmlns="http://www.w3.org/2000/svg" width="10.997" height="9.616" viewBox="0 0 10.997 9.616">
  <g id="arrow-right" transform="translate(-1072 -87)">
    <path id="Icon_ionic-ios-arrow-forward" data-name="Icon ionic-ios-arrow-forward" d="M15.087,11,11.448,7.367a.684.684,0,0,1,0-.971.693.693,0,0,1,.973,0l4.123,4.12a.686.686,0,0,1,.02.948l-4.14,4.149a.687.687,0,0,1-.973-.971Z" transform="translate(1060.754 80.804)" fill="#263135"/>
    <path id="Icon_ionic-ios-arrow-forward-2" data-name="Icon ionic-ios-arrow-forward" d="M15.087,11,11.448,7.367a.684.684,0,0,1,0-.971.693.693,0,0,1,.973,0l4.123,4.12a.686.686,0,0,1,.02.948l-4.14,4.149a.687.687,0,0,1-.973-.971Z" transform="translate(1066.252 80.804)" fill="#263135"/>
  </g>
</svg>
