<svg xmlns="http://www.w3.org/2000/svg" width="50.846" height="58.75" viewBox="0 0 50.846 58.75">
  <g id="ergonomie-icon" transform="translate(-5552.049 -1315.369)">
    <g id="Groupe_477" data-name="Groupe 477" transform="translate(5567.179 1319.853)">
      <path id="Tracé_3857" data-name="Tracé 3857" d="M5599.618,1355.308h-1.849a4.949,4.949,0,0,1-4.944-4.944v-.7a.624.624,0,1,1,1.249,0v.7a3.7,3.7,0,0,0,3.7,3.7h1.849a3.7,3.7,0,0,0,3.694-3.7v-.7l-.061-2.359c0-.005,0-.047,0-.052a6.22,6.22,0,0,1,1.81-4.4,8.977,8.977,0,0,0,2.677-6.42,9.077,9.077,0,0,0-2.875-6.614,8.976,8.976,0,0,0-6.812-2.409,9.042,9.042,0,0,0-5.8,15.363,6.434,6.434,0,0,1,1.859,3.889h4.587a.624.624,0,0,1,0,1.249h-5.183a.624.624,0,0,1-.625-.624,5.155,5.155,0,0,0-1.529-3.637,10.292,10.292,0,1,1,14.582.09,4.964,4.964,0,0,0-1.439,3.511l.062,3.111A4.95,4.95,0,0,1,5599.618,1355.308Z" transform="translate(-5588.399 -1326.141)" fill="#263135"/>
    </g>
    <g id="Groupe_478" data-name="Groupe 478" transform="translate(5564.672 1315.369)">
      <path id="Tracé_3858" data-name="Tracé 3858" d="M5612.253,1318.837a.625.625,0,0,1-.625-.625v-2.219a.625.625,0,0,1,1.249,0v2.219A.625.625,0,0,1,5612.253,1318.837Z" transform="translate(-5599.454 -1315.369)" fill="#263135"/>
      <path id="Tracé_3859" data-name="Tracé 3859" d="M5601.377,1320.966a.623.623,0,0,1-.586-.411l-.759-2.085a.624.624,0,1,1,1.173-.427l.759,2.085a.625.625,0,0,1-.587.838Z" transform="translate(-5592.662 -1316.69)" fill="#263135"/>
      <path id="Tracé_3860" data-name="Tracé 3860" d="M5591.886,1326.687a.624.624,0,0,1-.479-.223l-1.426-1.7a.624.624,0,0,1,.957-.8l1.426,1.7a.624.624,0,0,1-.478,1.025Z" transform="translate(-5586.731 -1320.255)" fill="#263135"/>
      <path id="Tracé_3861" data-name="Tracé 3861" d="M5584.922,1335.309a.622.622,0,0,1-.312-.084l-1.921-1.11a.624.624,0,0,1,.625-1.081l1.921,1.11a.624.624,0,0,1-.312,1.165Z" transform="translate(-5582.377 -1325.633)" fill="#263135"/>
      <path id="Tracé_3862" data-name="Tracé 3862" d="M5622.064,1320.966a.614.614,0,0,1-.213-.038.624.624,0,0,1-.374-.8l.759-2.085a.624.624,0,0,1,1.173.427l-.759,2.085A.624.624,0,0,1,5622.064,1320.966Z" transform="translate(-5605.181 -1316.69)" fill="#263135"/>
      <path id="Tracé_3863" data-name="Tracé 3863" d="M5630.62,1326.687a.624.624,0,0,1-.478-1.026l1.426-1.7a.624.624,0,0,1,.957.8l-1.426,1.7A.624.624,0,0,1,5630.62,1326.687Z" transform="translate(-5610.176 -1320.255)" fill="#263135"/>
      <path id="Tracé_3864" data-name="Tracé 3864" d="M5636.89,1335.309a.624.624,0,0,1-.313-1.165l1.921-1.11a.624.624,0,0,1,.625,1.081l-1.921,1.11A.623.623,0,0,1,5636.89,1335.309Z" transform="translate(-5613.835 -1325.633)" fill="#263135"/>
    </g>
    <path id="Tracé_3865" data-name="Tracé 3865" d="M5589.31,1391.48a17,17,0,0,1-16.983-16.983,16.827,16.827,0,0,1,5.337-12.361.624.624,0,1,1,.856.909,15.586,15.586,0,0,0-4.945,11.452,15.734,15.734,0,1,0,26.358-11.6.625.625,0,0,1,.845-.921,16.983,16.983,0,0,1-11.469,29.508Z" transform="translate(-11.838 -27.11)" fill="#263135"/>
    <path id="Tracé_3866" data-name="Tracé 3866" d="M5581.852,1394.423h-8.759a.625.625,0,0,1-.6-.452l-.41-1.42a11.016,11.016,0,0,0-5.181-6.483l-.092-.053a10.959,10.959,0,0,0-8.171-1.227l-1.436.356a.623.623,0,0,1-.691-.294l-4.379-7.585a.625.625,0,0,1,.09-.745l1.026-1.066a10.958,10.958,0,0,0,3.022-7.691v-.1a11.016,11.016,0,0,0-3.023-7.729l-1.025-1.066a.625.625,0,0,1-.09-.745l4.379-7.585a.624.624,0,0,1,.691-.294l1.438.356a10.841,10.841,0,0,0,6.438-.407.624.624,0,1,1,.438,1.169,12.082,12.082,0,0,1-7.176.45l-.982-.244-3.909,6.772.7.727a12.262,12.262,0,0,1,3.373,8.6v.1a12.2,12.2,0,0,1-3.372,8.558l-.7.728,3.909,6.772.98-.243a12.2,12.2,0,0,1,9.1,1.36l.086.05a12.258,12.258,0,0,1,5.758,7.219l.28.969h7.819l.281-.972a12.243,12.243,0,0,1,5.747-7.212l.351.519-.313-.541.039-.022a12.246,12.246,0,0,1,9.119-1.37l.981.243,3.91-6.772-.7-.727a12.259,12.259,0,0,1-3.372-8.6v-.1a12.2,12.2,0,0,1,3.372-8.558l.7-.727-3.91-6.772-.98.243a12.07,12.07,0,0,1-7.179-.448.624.624,0,1,1,.44-1.168,10.827,10.827,0,0,0,6.439.4l1.436-.355a.623.623,0,0,1,.69.294l4.379,7.585a.624.624,0,0,1-.091.745l-1.025,1.066a10.958,10.958,0,0,0-3.023,7.691v.1a11.016,11.016,0,0,0,3.024,7.729l1.024,1.066a.624.624,0,0,1,.091.745l-4.379,7.585a.623.623,0,0,1-.69.294l-1.437-.356a11,11,0,0,0-8.193,1.239l-.086.05a11,11,0,0,0-5.163,6.472l-.411,1.423A.624.624,0,0,1,5581.852,1394.423Z" transform="translate(0 -20.304)" fill="#263135"/>
    <path id="Tracé_3867" data-name="Tracé 3867" d="M5607.914,1402.738a3.722,3.722,0,0,1-3.717-3.718.624.624,0,1,1,1.248,0,2.469,2.469,0,0,0,4.938,0,.625.625,0,0,1,1.249,0A3.722,3.722,0,0,1,5607.914,1402.738Z" transform="translate(-30.443 -48.469)" fill="#263135"/>
    <path id="Tracé_3868" data-name="Tracé 3868" d="M5603.076,1338.134a9.2,9.2,0,0,1,7.137,3.386q.034-.351.034-.708a7.172,7.172,0,0,0-7.169-7.172c-.171,0-.343.006-.516.018a7.1,7.1,0,0,0-6.613,7.85A9.2,9.2,0,0,1,5603.076,1338.134Z" transform="translate(-25.604 -10.667)" fill="#ffd400"/>
  </g>
</svg>
