<svg xmlns="http://www.w3.org/2000/svg" width="52.487" height="40.879" viewBox="0 0 52.487 40.879">
  <g id="expertise-icon-1" transform="translate(-2476.786 -857.504)">
    <path id="Tracé_3757" data-name="Tracé 3757" d="M2521.049,864.625a1.808,1.808,0,0,1,1.509-2.846,3.36,3.36,0,0,0,2.935,1.806,1.917,1.917,0,0,1,1.436,2.87c-.009.016-.019.032-.029.048" transform="translate(-25.481 -2.208)" fill="none" stroke="#263135" stroke-linecap="round" stroke-miterlimit="10" stroke-width="1"/>
    <path id="Tracé_3758" data-name="Tracé 3758" d="M2525.09,859.571s0-.016-.011-.046a1.273,1.273,0,0,1,1.612-1.458,7,7,0,0,0,3.342.106,2.778,2.778,0,0,1,2.073.409,15.6,15.6,0,0,1,3.624,3.351" transform="translate(-28.013)" fill="none" stroke="#263135" stroke-linecap="round" stroke-miterlimit="10" stroke-width="1"/>
    <path id="Tracé_3759" data-name="Tracé 3759" d="M2516.57,868.716l6.121-.954a5.044,5.044,0,0,1,1.89.064l1.089.247a1.908,1.908,0,0,1,1.158,2.95l-.033.045a2.321,2.321,0,0,1,1.085,2.921,2.032,2.032,0,0,1,.569,2.714,2.288,2.288,0,0,1,1.034,2.559h0a47.335,47.335,0,0,1-8.443,5.226l-1.293.624-5.054.489a12.374,12.374,0,0,0-3.947,1.061l-8.127,5.291" transform="translate(-14.857 -5.682)" fill="none" stroke="#263135" stroke-linecap="round" stroke-miterlimit="10" stroke-width="1"/>
    <path id="Tracé_3760" data-name="Tracé 3760" d="M2515.807,882.578s-1.222.354-1.113,1.472a1.53,1.53,0,0,0,1.137,1.287l1.825.508a1.51,1.51,0,0,0,1.9-1.072,1.452,1.452,0,0,0-.246-1.145" transform="translate(-21.934 -14.406)" fill="none" stroke="#263135" stroke-linecap="round" stroke-miterlimit="10" stroke-width="1"/>
    <line id="Ligne_1" data-name="Ligne 1" x1="5.966" y2="4.414" transform="translate(2487.763 870.872)" fill="none" stroke="#263135" stroke-linecap="round" stroke-miterlimit="10" stroke-width="1"/>
    <path id="Tracé_3761" data-name="Tracé 3761" d="M2544.036,909.8s8.7,4.876,13.406,6.944" transform="translate(-39.146 -30.37)" fill="none" stroke="#263135" stroke-linecap="round" stroke-miterlimit="10" stroke-width="1"/>
    <line id="Ligne_2" data-name="Ligne 2" x2="3.153" y2="1.64" transform="translate(2514.626 873.58)" fill="none" stroke="#263135" stroke-linecap="round" stroke-miterlimit="10" stroke-width="1"/>
    <line id="Ligne_3" data-name="Ligne 3" x1="3.955" y2="0.362" transform="translate(2507.984 865.386)" fill="none" stroke="#263135" stroke-linecap="round" stroke-miterlimit="10" stroke-width="1"/>
    <line id="Ligne_4" data-name="Ligne 4" x1="4.271" y2="1.068" transform="translate(2508.753 868.307)" fill="none" stroke="#263135" stroke-linecap="round" stroke-miterlimit="10" stroke-width="1"/>
    <line id="Ligne_5" data-name="Ligne 5" x1="3.631" y2="1.939" transform="translate(2509.961 871.021)" fill="none" stroke="#263135" stroke-linecap="round" stroke-miterlimit="10" stroke-width="1"/>
    <path id="Tracé_3762" data-name="Tracé 3762" d="M2494.286,898.192l3.447-1.788v14.061l-3.447,1.854" transform="translate(-9.97 -22.514)" fill="none" stroke="#263135" stroke-linejoin="round" stroke-width="1"/>
    <path id="Tracé_3763" data-name="Tracé 3763" d="M2484.316,895.654v20.109l-7.03,3.851V899.445Z" transform="translate(0 -22.074)" fill="none" stroke="#263135" stroke-linecap="round" stroke-miterlimit="10" stroke-width="1"/>
    <path id="Tracé_3764" data-name="Tracé 3764" d="M2579.9,898.192l-3.446-1.788v14.061l3.446,1.854" transform="translate(-58.157 -22.514)" fill="none" stroke="#263135" stroke-linejoin="round" stroke-width="1"/>
    <path id="Tracé_3765" data-name="Tracé 3765" d="M2584.786,895.654v20.109l7.03,3.851V899.445Z" transform="translate(-63.043 -22.074)" fill="none" stroke="#263135" stroke-linecap="round" stroke-miterlimit="10" stroke-width="1"/>
    <path id="Tracé_3766" data-name="Tracé 3766" d="M2520.479,872.914l1.612.457a1.611,1.611,0,0,0,1.983-1.086h0a1.611,1.611,0,0,0-1.03-1.99l-4.616-1.551a1.809,1.809,0,0,0-1.711.264,1.745,1.745,0,0,0-.64,1.155,1.572,1.572,0,0,0,1.094,1.7l4.8,1.519-.33,1a1.7,1.7,0,0,1-2.194,1.071l-.271-.1-3.386-1a1.643,1.643,0,0,1-.75-2.071,1.6,1.6,0,0,1,1.445-.859" transform="translate(-22.069 -6.232)" fill="none" stroke="#263135" stroke-miterlimit="10" stroke-width="1"/>
  </g>
</svg>
