<svg xmlns="http://www.w3.org/2000/svg" width="51.922" height="51.033" viewBox="0 0 51.922 51.033">
  <g id="expertise-icon-2" transform="translate(-1004.803 -1590.375)">
    <g id="Groupe_75" data-name="Groupe 75" transform="translate(1021.66 1590.875)">
      <path id="Tracé_3780" data-name="Tracé 3780" d="M1042.664,1625.652c0-.471.69-7.88.69-7.88l4.992-3.265" transform="translate(-1042.664 -1604.161)" fill="none" stroke="#263135" stroke-linejoin="round" stroke-width="1"/>
      <path id="Tracé_3781" data-name="Tracé 3781" d="M1055.643,1614.508h0l.084,3.691a3.673,3.673,0,0,0,1.322,2.738l2.016,1.679,2.016-1.679a3.671,3.671,0,0,0,1.322-2.738l.084-3.691h0A5.766,5.766,0,0,1,1055.643,1614.508Z" transform="translate(-1049.961 -1604.161)" fill="none" stroke="#263135" stroke-linecap="round" stroke-linejoin="round" stroke-width="1"/>
      <path id="Tracé_3782" data-name="Tracé 3782" d="M1076.956,1625.652c0-.471-.691-7.88-.691-7.88l-4.991-3.265" transform="translate(-1058.748 -1604.161)" fill="none" stroke="#263135" stroke-linejoin="round" stroke-width="1"/>
      <path id="Tracé_3783" data-name="Tracé 3783" d="M1062.427,1595.333c0-2.462-1.626-4.458-3.631-4.458s-3.631,2-3.631,4.458,1.626,4.457,3.631,4.457S1062.427,1597.795,1062.427,1595.333Z" transform="translate(-1049.692 -1590.875)" fill="none" stroke="#263135" stroke-linecap="round" stroke-linejoin="round" stroke-width="1"/>
    </g>
    <g id="Groupe_76" data-name="Groupe 76" transform="translate(1005.303 1619.917)">
      <path id="Tracé_3784" data-name="Tracé 3784" d="M1005.3,1691.986c0-.471.69-7.88.69-7.88l4.992-3.265" transform="translate(-1005.303 -1670.495)" fill="none" stroke="#263135" stroke-linejoin="round" stroke-width="1"/>
      <path id="Tracé_3785" data-name="Tracé 3785" d="M1018.282,1680.842h0l.084,3.691a3.671,3.671,0,0,0,1.322,2.739l2.016,1.678,2.017-1.678a3.672,3.672,0,0,0,1.321-2.739l.084-3.691h0A5.766,5.766,0,0,1,1018.282,1680.842Z" transform="translate(-1012.6 -1670.495)" fill="none" stroke="#263135" stroke-linecap="round" stroke-linejoin="round" stroke-width="1"/>
      <path id="Tracé_3786" data-name="Tracé 3786" d="M1039.6,1691.986c0-.471-.691-7.88-.691-7.88l-4.991-3.265" transform="translate(-1021.387 -1670.495)" fill="none" stroke="#263135" stroke-linejoin="round" stroke-width="1"/>
      <path id="Tracé_3787" data-name="Tracé 3787" d="M1025.066,1661.667c0-2.462-1.626-4.458-3.631-4.458s-3.631,2-3.631,4.458,1.626,4.457,3.631,4.457S1025.066,1664.129,1025.066,1661.667Z" transform="translate(-1012.331 -1657.209)" fill="none" stroke="#263135" stroke-linecap="round" stroke-linejoin="round" stroke-width="1"/>
      <line id="Ligne_12" data-name="Ligne 12" y2="3.036" transform="translate(9.104 18.455)" fill="none" stroke="#263135" stroke-linejoin="round" stroke-width="1"/>
    </g>
    <g id="Groupe_77" data-name="Groupe 77" transform="translate(1038.017 1619.245)">
      <path id="Tracé_3788" data-name="Tracé 3788" d="M1080.025,1690.452c0-.471.69-7.879.69-7.879l4.991-3.265" transform="translate(-1080.025 -1668.962)" fill="none" stroke="#263135" stroke-linejoin="round" stroke-width="1"/>
      <path id="Tracé_3789" data-name="Tracé 3789" d="M1093,1679.308h0l.084,3.691a3.672,3.672,0,0,0,1.322,2.739l2.016,1.679,2.016-1.679a3.672,3.672,0,0,0,1.322-2.739l.084-3.691h0A5.768,5.768,0,0,1,1093,1679.308Z" transform="translate(-1087.321 -1668.962)" fill="none" stroke="#263135" stroke-linecap="round" stroke-linejoin="round" stroke-width="1"/>
      <path id="Tracé_3790" data-name="Tracé 3790" d="M1114.317,1690.452c0-.471-.691-7.879-.691-7.879l-4.991-3.265" transform="translate(-1096.109 -1668.962)" fill="none" stroke="#263135" stroke-linejoin="round" stroke-width="1"/>
      <path id="Tracé_3791" data-name="Tracé 3791" d="M1099.787,1660.133c0-2.462-1.625-4.457-3.631-4.457s-3.631,2-3.631,4.457,1.626,4.458,3.631,4.458S1099.787,1662.6,1099.787,1660.133Z" transform="translate(-1087.052 -1655.676)" fill="none" stroke="#263135" stroke-linecap="round" stroke-linejoin="round" stroke-width="1"/>
      <line id="Ligne_13" data-name="Ligne 13" y2="3.036" transform="translate(9.104 18.455)" fill="none" stroke="#263135" stroke-linejoin="round" stroke-width="1"/>
    </g>
    <g id="Groupe_78" data-name="Groupe 78" transform="translate(1025.111 1615.823)">
      <line id="Ligne_14" data-name="Ligne 14" x1="5.692" y2="5.692" transform="translate(0 6.282)" fill="none" stroke="#263135" stroke-linecap="round" stroke-linejoin="round" stroke-width="1"/>
      <path id="Tracé_3792" data-name="Tracé 3792" d="M1063.548,1647.858v6.282l5.614,5.614" transform="translate(-1057.855 -1647.858)" fill="none" stroke="#263135" stroke-linecap="round" stroke-linejoin="round" stroke-width="1"/>
    </g>
    <line id="Ligne_15" data-name="Ligne 15" y2="3.036" transform="translate(1030.764 1609.33)" fill="none" stroke="#263135" stroke-linejoin="round" stroke-width="1"/>
  </g>
</svg>
