<svg xmlns="http://www.w3.org/2000/svg" width="44.734" height="45.692" viewBox="0 0 44.734 45.692">
  <g id="expertise-icon-4" transform="translate(-2486.024 -293.603)">
    <g id="Groupe_81" data-name="Groupe 81" transform="translate(2492.436 303.427)">
      <g id="Groupe_80" data-name="Groupe 80" transform="translate(0 0)">
        <line id="Ligne_16" data-name="Ligne 16" x2="29.446" transform="translate(0 14.725)" fill="none" stroke="#263135" stroke-linecap="round" stroke-linejoin="round" stroke-width="1"/>
        <line id="Ligne_17" data-name="Ligne 17" y2="14.738" transform="translate(14.723 0.002)" fill="none" stroke="#263135" stroke-linecap="round" stroke-linejoin="round" stroke-width="1"/>
        <path id="Tracé_3793" data-name="Tracé 3793" d="M2502.355,333.928a14.725,14.725,0,1,1,29.449.022" transform="translate(-2502.355 -319.188)" fill="none" stroke="#263135" stroke-linecap="round" stroke-linejoin="round" stroke-width="1"/>
        <path id="Tracé_3794" data-name="Tracé 3794" d="M2528.751,319.188s-7.893,3.151-7.893,14.725" transform="translate(-2514.026 -319.188)" fill="none" stroke="#263135" stroke-linecap="round" stroke-linejoin="round" stroke-width="1"/>
        <path id="Tracé_3795" data-name="Tracé 3795" d="M2520.858,359.069" transform="translate(-2514.026 -344.344)" fill="none" stroke="#263135" stroke-linecap="round" stroke-linejoin="round" stroke-width="1"/>
        <path id="Tracé_3796" data-name="Tracé 3796" d="M2542.236,319.188s7.894,3.151,7.894,14.725" transform="translate(-2527.511 -319.188)" fill="none" stroke="#263135" stroke-linecap="round" stroke-linejoin="round" stroke-width="1"/>
        <path id="Tracé_3797" data-name="Tracé 3797" d="M2563.615,359.069" transform="translate(-2540.997 -344.344)" fill="none" stroke="#263135" stroke-linecap="round" stroke-linejoin="round" stroke-width="1"/>
        <path id="Tracé_3798" data-name="Tracé 3798" d="M2524.74,334.674c-8.131,0-10.238-4.265-10.238-4.265" transform="translate(-2510.018 -326.266)" fill="none" stroke="#263135" stroke-linecap="round" stroke-linejoin="round" stroke-width="1"/>
        <path id="Tracé_3799" data-name="Tracé 3799" d="M2552.479,330.409s-2.106,4.265-10.238,4.265" transform="translate(-2527.515 -326.266)" fill="none" stroke="#263135" stroke-linecap="round" stroke-linejoin="round" stroke-width="1"/>
        <path id="Tracé_3800" data-name="Tracé 3800" d="M2559.467,338.493" transform="translate(-2538.38 -331.365)" fill="none" stroke="#263135" stroke-width="1"/>
        <line id="Ligne_18" data-name="Ligne 18" y1="14.738" transform="translate(14.727 14.725)" fill="none" stroke="#263135" stroke-linecap="round" stroke-linejoin="round" stroke-width="1"/>
        <path id="Tracé_3801" data-name="Tracé 3801" d="M2531.8,359.111a14.725,14.725,0,1,1-29.449,0" transform="translate(-2502.355 -344.371)" fill="none" stroke="#263135" stroke-linecap="round" stroke-linejoin="round" stroke-width="1"/>
        <path id="Tracé_3802" data-name="Tracé 3802" d="M2542.236,373.836s7.894-3.151,7.894-14.725" transform="translate(-2527.511 -344.371)" fill="none" stroke="#263135" stroke-linecap="round" stroke-linejoin="round" stroke-width="1"/>
        <path id="Tracé_3803" data-name="Tracé 3803" d="M2563.615,359.111" transform="translate(-2540.997 -344.371)" fill="none" stroke="#263135" stroke-linecap="round" stroke-linejoin="round" stroke-width="1"/>
        <path id="Tracé_3804" data-name="Tracé 3804" d="M2528.751,373.836s-7.893-3.151-7.893-14.725" transform="translate(-2514.026 -344.371)" fill="none" stroke="#263135" stroke-linecap="round" stroke-linejoin="round" stroke-width="1"/>
        <path id="Tracé_3805" data-name="Tracé 3805" d="M2520.858,359.111" transform="translate(-2514.026 -344.371)" fill="none" stroke="#263135" stroke-linecap="round" stroke-linejoin="round" stroke-width="1"/>
        <path id="Tracé_3806" data-name="Tracé 3806" d="M2552.479,380.484s-2.106-4.265-10.238-4.265" transform="translate(-2527.515 -355.162)" fill="none" stroke="#263135" stroke-linecap="round" stroke-linejoin="round" stroke-width="1"/>
        <path id="Tracé_3807" data-name="Tracé 3807" d="M2514.5,380.484s2.106-4.265,10.238-4.265" transform="translate(-2510.018 -355.162)" fill="none" stroke="#263135" stroke-linecap="round" stroke-linejoin="round" stroke-width="1"/>
        <path id="Tracé_3808" data-name="Tracé 3808" d="M2525.006,379.688" transform="translate(-2516.643 -357.35)" fill="none" stroke="#263135" stroke-width="1"/>
      </g>
    </g>
    <g id="Groupe_85" data-name="Groupe 85" transform="translate(2486.63 294.201)">
      <g id="Groupe_82" data-name="Groupe 82">
        <path id="Tracé_3809" data-name="Tracé 3809" d="M2504.005,297.463c-1.42,3.184-4.761,3.316-8.582,5.772a19.358,19.358,0,0,0-6.82,8.023,20.877,20.877,0,0,0-.5,16.568" transform="translate(-2486.63 -296.259)" fill="none" stroke="#263135" stroke-linecap="round" stroke-miterlimit="10" stroke-width="1"/>
        <path id="Tracé_3810" data-name="Tracé 3810" d="M2526.5,294.991l3.46-.79.79,3.46" transform="translate(-2511.778 -294.201)" fill="none" stroke="#263135" stroke-linecap="round" stroke-miterlimit="10" stroke-width="1"/>
      </g>
      <g id="Groupe_83" data-name="Groupe 83" transform="translate(0.949 35.568)">
        <path id="Tracé_3811" data-name="Tracé 3811" d="M2493.114,394.919c3.467-.362,5.253,2.465,9.289,4.546a19.353,19.353,0,0,0,10.358,1.895,20.878,20.878,0,0,0,14.6-7.852" transform="translate(-2491.668 -392.411)" fill="none" stroke="#263135" stroke-linecap="round" stroke-miterlimit="10" stroke-width="1"/>
        <path id="Tracé_3812" data-name="Tracé 3812" d="M2491.614,395.551l-2.414-2.6,2.6-2.414" transform="translate(-2489.199 -390.536)" fill="none" stroke="#263135" stroke-linecap="round" stroke-miterlimit="10" stroke-width="1"/>
      </g>
      <g id="Groupe_84" data-name="Groupe 84" transform="translate(23.473 3.664)">
        <path id="Tracé_3813" data-name="Tracé 3813" d="M2568.549,333.075c-2.047-2.822-.491-5.782-.708-10.318a19.359,19.359,0,0,0-3.538-9.918,20.881,20.881,0,0,0-14.1-8.716" transform="translate(-2550.204 -304.124)" fill="none" stroke="#263135" stroke-linecap="round" stroke-miterlimit="10" stroke-width="1"/>
        <path id="Tracé_3814" data-name="Tracé 3814" d="M2596.876,376.869l-1.045,3.391-3.392-1.045" transform="translate(-2576.846 -350.011)" fill="none" stroke="#263135" stroke-linecap="round" stroke-miterlimit="10" stroke-width="1"/>
      </g>
    </g>
  </g>
</svg>
