<svg xmlns="http://www.w3.org/2000/svg" width="52.156" height="52.251" viewBox="0 0 52.156 52.251">
  <g id="expertise-icon-3" transform="translate(-2113.48 -846.044)">
    <g id="Groupe_72" data-name="Groupe 72" transform="translate(2113.98 872.836)">
      <path id="Tracé_3767" data-name="Tracé 3767" d="M2113.98,945.06c0-.564.828-9.446.828-9.446l5.983-3.914" transform="translate(-2113.98 -920.21)" fill="none" stroke="#263135" stroke-linejoin="round" stroke-width="1"/>
      <path id="Tracé_3768" data-name="Tracé 3768" d="M2129.332,931.7l.6,7.338,3.5-3.048Z" transform="translate(-2122.52 -920.21)" fill="none" stroke="#263135" stroke-linecap="round" stroke-linejoin="round" stroke-width="1"/>
      <line id="Ligne_6" data-name="Ligne 6" x1="1.43" y2="5.57" transform="translate(8.656 19.281)" fill="none" stroke="#263135" stroke-linecap="round" stroke-linejoin="round" stroke-width="1"/>
      <path id="Tracé_3769" data-name="Tracé 3769" d="M2154.634,945.06c0-.564-.828-9.446-.828-9.446l-5.984-3.914" transform="translate(-2132.807 -920.21)" fill="none" stroke="#263135" stroke-linejoin="round" stroke-width="1"/>
      <path id="Tracé_3770" data-name="Tracé 3770" d="M2142.679,931.7l-.6,7.338-3.5-3.048Z" transform="translate(-2127.664 -920.21)" fill="none" stroke="#263135" stroke-linecap="round" stroke-linejoin="round" stroke-width="1"/>
      <path id="Tracé_3771" data-name="Tracé 3771" d="M2136.238,941.37,2134.372,943l1.038,1.875h1.656L2138.1,943Z" transform="translate(-2125.325 -925.589)" fill="none" stroke="#263135" stroke-linecap="round" stroke-linejoin="round" stroke-width="1"/>
      <line id="Ligne_7" data-name="Ligne 7" x2="1.43" y2="5.57" transform="translate(11.741 19.281)" fill="none" stroke="#263135" stroke-linecap="round" stroke-linejoin="round" stroke-width="1"/>
      <line id="Ligne_8" data-name="Ligne 8" x2="3.199" transform="translate(15.015 21.326)" fill="none" stroke="#263135" stroke-linecap="round" stroke-linejoin="round" stroke-width="1"/>
      <path id="Tracé_3772" data-name="Tracé 3772" d="M2137.473,911.146c0-2.951-1.949-5.344-4.354-5.344s-4.352,2.392-4.352,5.344,1.949,5.344,4.352,5.344S2137.473,914.1,2137.473,911.146Z" transform="translate(-2122.206 -905.802)" fill="none" stroke="#263135" stroke-linecap="round" stroke-linejoin="round" stroke-width="1"/>
    </g>
    <g id="Groupe_73" data-name="Groupe 73" transform="translate(2143.309 846.544)">
      <path id="Tracé_3773" data-name="Tracé 3773" d="M2180.084,885.8c0-.564.828-9.446.828-9.446l5.984-3.914" transform="translate(-2180.084 -860.952)" fill="none" stroke="#263135" stroke-linejoin="round" stroke-width="1"/>
      <path id="Tracé_3774" data-name="Tracé 3774" d="M2195.437,872.443l.6,7.338,3.5-3.048Z" transform="translate(-2188.625 -860.952)" fill="none" stroke="#263135" stroke-linecap="round" stroke-linejoin="round" stroke-width="1"/>
      <line id="Ligne_9" data-name="Ligne 9" x1="1.43" y2="5.569" transform="translate(8.656 19.281)" fill="none" stroke="#263135" stroke-linecap="round" stroke-linejoin="round" stroke-width="1"/>
      <path id="Tracé_3775" data-name="Tracé 3775" d="M2220.739,885.8c0-.564-.827-9.446-.827-9.446l-5.984-3.914" transform="translate(-2198.912 -860.952)" fill="none" stroke="#263135" stroke-linejoin="round" stroke-width="1"/>
      <path id="Tracé_3776" data-name="Tracé 3776" d="M2208.784,872.443l-.6,7.338-3.5-3.048Z" transform="translate(-2193.768 -860.952)" fill="none" stroke="#263135" stroke-linecap="round" stroke-linejoin="round" stroke-width="1"/>
      <path id="Tracé_3777" data-name="Tracé 3777" d="M2202.342,882.113l-1.865,1.625,1.038,1.875h1.656l1.038-1.875Z" transform="translate(-2191.429 -866.331)" fill="none" stroke="#263135" stroke-linecap="round" stroke-linejoin="round" stroke-width="1"/>
      <line id="Ligne_10" data-name="Ligne 10" x2="1.43" y2="5.569" transform="translate(11.742 19.281)" fill="none" stroke="#263135" stroke-linecap="round" stroke-linejoin="round" stroke-width="1"/>
      <line id="Ligne_11" data-name="Ligne 11" x2="3.199" transform="translate(15.016 21.326)" fill="none" stroke="#263135" stroke-linecap="round" stroke-linejoin="round" stroke-width="1"/>
      <ellipse id="Ellipse_33" data-name="Ellipse 33" cx="4.353" cy="5.344" rx="4.353" ry="5.344" transform="translate(6.561)" fill="none" stroke="#263135" stroke-linecap="round" stroke-linejoin="round" stroke-width="1"/>
    </g>
    <path id="Tracé_3778" data-name="Tracé 3778" d="M2189.128,931.92a18.909,18.909,0,0,0,12.95-12.66" transform="translate(-41.806 -40.453)" fill="none" stroke="#263135" stroke-miterlimit="10" stroke-width="1"/>
    <path id="Tracé_3779" data-name="Tracé 3779" d="M2135.1,879.07a18.907,18.907,0,0,1,12.66-12.95" transform="translate(-11.749 -10.89)" fill="none" stroke="#263135" stroke-miterlimit="10" stroke-width="1"/>
  </g>
</svg>
