<svg xmlns="http://www.w3.org/2000/svg" width="93.58" height="90.831" viewBox="0 0 93.58 90.831">
  <g id="light" transform="translate(-903.71 -896.53)">
    <rect id="Rectangle_12" data-name="Rectangle 12" width="75.394" height="71.967" rx="10" transform="matrix(0.985, -0.174, 0.174, 0.985, 910.544, 916.487)" fill="#263135"/>
    <g id="Rectangle_13" data-name="Rectangle 13" transform="translate(918.433 907.726) rotate(3)" fill="#ffd400" stroke="#fff" stroke-width="2">
      <rect width="75.002" height="71.593" rx="10" stroke="none"/>
      <rect x="1" y="1" width="73.002" height="69.593" rx="9" fill="none"/>
    </g>
    <g id="Groupe_5" data-name="Groupe 5" transform="translate(934.473 917.962)">
      <path id="Tracé_3705" data-name="Tracé 3705" d="M190.235,321.763a16.861,16.861,0,0,0-4.054,30.094c4.327,2.854,6.636,4.237,8.248,9.164h0a1.757,1.757,0,0,0,2.217,1.124l12.282-4.017a1.758,1.758,0,0,0,1.124-2.217v0c-1.616-4.941-.572-7.393,1.237-12.267a16.86,16.86,0,0,0-21.054-21.88Z" transform="translate(-178.611 -320.923)" fill="#fff"/>
      <path id="Tracé_3706" data-name="Tracé 3706" d="M200.586,369.757a1.873,1.873,0,0,0-1.365,2.254l.106.322a1.873,1.873,0,0,0,2.432,1.012l11.2-3.665a1.873,1.873,0,0,0,1.365-2.253l-.106-.322a1.873,1.873,0,0,0-2.433-1.012Z" transform="translate(-181.629 -327.545)" fill="#414042"/>
      <path id="Tracé_3707" data-name="Tracé 3707" d="M202.4,375.307a1.873,1.873,0,0,0-1.365,2.253l.106.323a1.872,1.872,0,0,0,2.433,1.011l11.2-3.664a1.874,1.874,0,0,0,1.365-2.254l-.1-.322a1.874,1.874,0,0,0-2.433-1.011Z" transform="translate(-181.896 -328.361)" fill="#414042"/>
      <path id="Tracé_3708" data-name="Tracé 3708" d="M207.1,379.947a1.155,1.155,0,0,0-.718.642.829.829,0,0,0,.115.847,4.866,4.866,0,0,0,8.3-2.716.83.83,0,0,0-.408-.751,1.153,1.153,0,0,0-.959-.093Z" transform="translate(-182.683 -329.285)" fill="#414042"/>
      <g id="Groupe_4" data-name="Groupe 4" transform="translate(12.762 23.197)">
        <path id="Tracé_3709" data-name="Tracé 3709" d="M199.969,363.844a.229.229,0,0,1-.174.024.232.232,0,0,1-.139-.107l-5.934-10.2a1.1,1.1,0,0,1,1.152-1.628l1.651.312a1.5,1.5,0,0,0,1.547-.688l.6-.99a1.931,1.931,0,0,1,2.539-.7l.656.344a1.447,1.447,0,0,0,1.706-.262l1.5-1.51a1.089,1.089,0,0,1,1.846.594l1.863,11.477a.229.229,0,0,1-.189.263l-.038.006a.228.228,0,0,1-.263-.189l-1.863-11.476a.593.593,0,0,0-1-.323l-1.5,1.51a1.939,1.939,0,0,1-2.288.351l-.657-.343a1.434,1.434,0,0,0-1.885.523l-.6.989a2,2,0,0,1-2.063.918l-1.651-.312a.6.6,0,0,0-.629.891l5.933,10.2a.228.228,0,0,1-.083.313Z" transform="translate(-193.572 -348.117)" fill="#414042"/>
      </g>
    </g>
    <g id="Groupe_6" data-name="Groupe 6" transform="translate(903.71 896.53)">
      <path id="Tracé_3710" data-name="Tracé 3710" d="M614.512,239.5c.638.494.646,1.157.878,1.861.249.753.761,1.4,1.039,2.151.313.841.521,1.717.824,2.561a5.742,5.742,0,0,1,.563,1.968.7.7,0,0,1-.687.687l-.18.01a.645.645,0,0,1-.611-.886c-.218-.484-.608-.943-.831-1.407-.314-.655-.58-1.332-.9-1.983-.3-.6-.7-1.111-1.031-1.685a11.766,11.766,0,0,0-.71-1.629A1.166,1.166,0,0,1,614.512,239.5Z" transform="translate(-595.863 -239.205)" fill="#fff"/>
      <path id="Tracé_3711" data-name="Tracé 3711" d="M646.5,267.092a3.617,3.617,0,0,0,.742.694c.361.324.7.681,1.029,1.033a26.461,26.461,0,0,1,1.792,2.144c.517.677,1.048,1.332,1.595,1.985a2.77,2.77,0,0,1,.8,1.757c.013.8-1.123.754-1.21,0-.068-.587-.907-1.125-1.312-1.523-.567-.556-1.144-1.1-1.738-1.63-1.114-.989-2.375-1.717-3.551-2.611C642.822,267.551,645.409,265.293,646.5,267.092Z" transform="translate(-635.665 -261.968)" fill="#fff"/>
      <path id="Tracé_3712" data-name="Tracé 3712" d="M678.987,306.357a2.317,2.317,0,0,0,.772.255,8.035,8.035,0,0,1,1.175.537c.887.455,1.781.9,2.626,1.43.727.456,1.459.926,2.142,1.446.518.395,1.215,1.115,1.895,1.162.592.042.807.969.149,1.1a3,3,0,0,1-2.006-.413,25.878,25.878,0,0,0-2.7-1.219c-1.034-.39-2.1-.706-3.153-1.034-.97-.3-1.945-.154-2.748-.876C675.883,307.612,677.6,305.3,678.987,306.357Z" transform="translate(-676.704 -295.136)" fill="#fff"/>
    </g>
  </g>
</svg>
