<svg xmlns="http://www.w3.org/2000/svg" width="216.648" height="69.058" viewBox="0 0 216.648 69.058">
  <g id="logo" transform="translate(-61.108 -155.626)">
    <path id="Tracé_3827" data-name="Tracé 3827" d="M264.784,155.626v16.607a17.379,17.379,0,0,0-18.68,6.848,17.35,17.35,0,0,0-27.13-1.676,11.2,11.2,0,0,0-10.041-5.736,11.649,11.649,0,0,0-8.408,3.428,11.652,11.652,0,0,0-8.4-3.428c-5.712,0-10.414,3.862-10.983,8.79l-6.87-13.409a7.14,7.14,0,0,0-.784-1.434l-.175-.242a6.75,6.75,0,0,0-4.259-2.615,6.606,6.606,0,0,0-4.854-2.159,6.824,6.824,0,0,0-6.207,4.234l-10.458,20.583a17.381,17.381,0,0,0-31.639-5.5,17.4,17.4,0,0,0-31.727,12.861l-8.088.013c-.782,0-1.484-.124-1.484-1.645l-.384-35.388h-13.1V192.9l0,.111c.835,13.5,11.761,13.653,11.871,13.653h28.654l0-.022a17.4,17.4,0,0,0,14.249-8.054,17.315,17.315,0,0,0,21.578,6.627l-2.982,5.87h3.953l-1.1,2.074h19.351l2.094-3.93,16.886-.067,1.105,2.1h2.361l.9,1.892h17.851l-3.373-6.584h12.312V185.957l.01-.067c.034-.2.333-.413.755-.413s.719.212.753.41l.013.053v20.638h11.618v-4.818a17.347,17.347,0,0,0,26.125-2.7,17.4,17.4,0,0,0,31.652-9.989V155.626ZM101.217,194.585a5.33,5.33,0,1,1,5.33-5.33A5.336,5.336,0,0,1,101.217,194.585Zm43.292-3.223h-8.962l-.531.809a5.329,5.329,0,1,1,0-5.831l.531.809h11.1Zm49.909,15.021-1.632-3.186,0-17.061.015-.228c.013-.175.312-.43.754-.43s.741.257.755.453l.02.245.091.612ZM231.863,194.4a5.33,5.33,0,1,1,5.33-5.33A5.336,5.336,0,0,1,231.863,194.4Zm28.479,0a5.33,5.33,0,1,1,5.331-5.33A5.336,5.336,0,0,1,260.343,194.4Z" fill="#fff"/>
    <path id="Tracé_3828" data-name="Tracé 3828" d="M210.993,175.285a9.689,9.689,0,0,0-8.407,4.456,9.7,9.7,0,0,0-8.406-4.456c-5.209,0-9.445,3.673-9.445,8.186a7.2,7.2,0,0,0,.062.921h-.062v5.031L174.681,169.8a5.368,5.368,0,0,0-.6-1.126l-.148-.2a4.875,4.875,0,0,0-3.721-1.991l-.093-.1a4.858,4.858,0,0,0-3.872-1.979,5.052,5.052,0,0,0-4.582,3.2l-13.91,27.376h-9.175a7.123,7.123,0,1,1,0-7.8h9.348a15.816,15.816,0,1,0-3.546,14.436l-4.923,9.688h4.008l-1.1,2.073h15.3l2.091-3.924,19.045-.077,1.108,2.109h2.409l.9,1.892h13.788l-3.768-7.354V188.033l.016-.229a2.406,2.406,0,0,1,4.715,0l.02.246h.1v18.928h9.2V187.836l.034-.211a2.438,2.438,0,0,1,4.676,0l.036.1v19.249h8.4V184.391h-.058a7.119,7.119,0,0,0,.058-.921C220.432,178.958,216.2,175.285,210.993,175.285ZM166.738,196l2.8-5.082L172.354,196Zm-79.968.577-8.634.014c-2.881,0-3.276-2.217-3.276-3.418l-.366-33.615H64.961V194.91c.733,11.837,9.989,11.973,10.083,11.973H96.015A17.485,17.485,0,0,1,86.77,196.578Zm30.28-13.24a15.8,15.8,0,1,0,0,15.48,17.215,17.215,0,0,1,0-15.48ZM103.278,198.2a7.123,7.123,0,1,1,7.122-7.123A7.123,7.123,0,0,1,103.278,198.2Zm165.174-39.119v17.237a15.782,15.782,0,0,0-19.353,6.09,17.305,17.305,0,0,1,0,17.021,15.8,15.8,0,0,0,29.108-8.51V159.082Zm-6.049,38.96a7.123,7.123,0,1,1,7.123-7.122A7.122,7.122,0,0,1,262.4,198.042Zm-28.479-22.927a15.77,15.77,0,0,0-12.233,5.8,8.7,8.7,0,0,1,.348,2.4c0,.173,0,.346-.014.52l.014.4v17.082a15.8,15.8,0,1,0,11.884-26.2Zm0,22.927a7.123,7.123,0,1,1,7.123-7.122A7.122,7.122,0,0,1,233.924,198.042Z" transform="translate(-2.061 -1.848)" fill="#1c2528"/>
    <path id="Tracé_3829" data-name="Tracé 3829" d="M257.846,175.812l-.007-.012-.006-.013c-.169-.346-.481-.9-.7-1.274l-.014-.024-.013-.025a4.249,4.249,0,0,0-3.476-2.368c-1.63,0-3.062,1.228-4.139,3.551l-.009.019-.01.019-21.094,41.5h12.439l1.965-3.7.331-.624h22.533l.333.62,2.022,3.766h11.348Zm5.142,32.27H244.77V189.864h18.218Z" transform="translate(-89.469 -8.81)" fill="none"/>
    <path id="Tracé_3830" data-name="Tracé 3830" d="M286.571,227.528l-2.8,5.082h5.617Z" transform="translate(-119.091 -38.457)" fill="none"/>
    <path id="Tracé_3831" data-name="Tracé 3831" d="M256.687,173.919c-.235-.48-.649-1.2-.735-1.346a5.428,5.428,0,0,0-4.518-3c-1.48,0-3.583.735-5.2,4.231l-21.962,43.2h15.06l2.3-4.324h21.124l2.354,4.385h13.985Zm-4.744,27.692,2.8-5.082,2.814,5.082Z" transform="translate(-87.266 -7.459)" fill="#1c2528"/>
    <path id="Tracé_3832" data-name="Tracé 3832" d="M258.14,176.343c-.24-.49-.7-1.284-.7-1.284a4.293,4.293,0,0,0-3.514-2.4c-1.793,0-3.184,1.439-4.168,3.565l-20.9,41.057h12.462l2.269-4.265h22.493l2.273,4.265h11.059ZM247.6,204.294l7.211-13.557,7.227,13.557Z" transform="translate(-89.718 -9.111)" fill="#ffd400"/>
    <path id="Tracé_3833" data-name="Tracé 3833" d="M154.495,283.887h-.959v2.054h-.827v.732h.827v4.03a1.608,1.608,0,0,0,1.68,1.759h.68v-.825h-.506c-.614,0-.894-.361-.894-.961v-4h1.4v-.732h-1.4Zm6.269,2.813v-.8H159.8v6.561h.959v-4.028a1.6,1.6,0,0,1,1.574-1.761,1.372,1.372,0,0,1,1.134.48l.707-.72a2.02,2.02,0,0,0-1.574-.613A2.2,2.2,0,0,0,160.764,286.7Zm92.4,5.762h.959V285.9h-.959Zm-85.8-8.417h1.079v-1.078h-1.079Zm.053,8.417h.959V285.9h-.959Zm-35.175-6.642a2.512,2.512,0,0,0-2.162,1.093,2.163,2.163,0,0,0-2.014-1.093,2.4,2.4,0,0,0-1.855.8V285.9h-.958v6.561h.958V288.42a1.553,1.553,0,0,1,1.641-1.747,1.527,1.527,0,0,1,1.615,1.747v4.042h.959v-4.149a1.63,1.63,0,1,1,3.256.107v4.042h.959v-4.2a2.439,2.439,0,0,0-.706-1.827A2.392,2.392,0,0,0,132.246,285.82ZM148,292.462h.959V285.9H148Zm-35.03-6.642a2.543,2.543,0,0,0-2.321.973l.653.6a1.723,1.723,0,0,1,1.655-.747c1.2,0,1.682.48,1.682,1.441v.628h-1.975c-1.468,0-2.267.746-2.267,1.893a1.9,1.9,0,0,0,.493,1.334,2.338,2.338,0,0,0,1.854.6,2.306,2.306,0,0,0,1.9-.708v.628h.958v-4.454C115.6,286.58,114.732,285.82,112.97,285.82Zm1.669,4.321a1.514,1.514,0,0,1-.334,1.134,1.919,1.919,0,0,1-1.467.44c-1.041,0-1.509-.361-1.509-1.121s.481-1.161,1.468-1.161h1.842Zm26.4-4.321a2.542,2.542,0,0,0-2.321.973l.652.6a1.725,1.725,0,0,1,1.655-.747c1.2,0,1.682.48,1.682,1.441v.628h-1.975c-1.467,0-2.266.746-2.266,1.893a1.9,1.9,0,0,0,.493,1.334,2.337,2.337,0,0,0,1.854.6,2.3,2.3,0,0,0,1.895-.708v.628h.959v-4.454C143.663,286.58,142.8,285.82,141.037,285.82Zm1.668,4.321a1.514,1.514,0,0,1-.334,1.134,1.922,1.922,0,0,1-1.468.44c-1.041,0-1.508-.361-1.508-1.121s.48-1.161,1.468-1.161H142.7ZM271.907,289c0-1.948-1-3.175-2.7-3.175-1.667,0-2.693,1.239-2.693,3.361,0,2.322,1.133,3.361,2.867,3.361a3.007,3.007,0,0,0,2.4-1.013l-.654-.574a2.155,2.155,0,0,1-1.721.748c-1.254,0-1.934-.828-1.934-2.27h4.429Zm-4.429-.28a2.76,2.76,0,0,1,.2-1.094,1.685,1.685,0,0,1,3.068,0,2.753,2.753,0,0,1,.2,1.094ZM148.066,282.5,146.4,284.54h.92l1.2-1.388,1.2,1.388h.921l-1.668-2.041Zm74.633,6.269-1.055-.093c-.827-.067-1.147-.4-1.147-.961,0-.667.507-1.081,1.468-1.081a2.8,2.8,0,0,1,1.748.521l.626-.627a3.715,3.715,0,0,0-2.361-.706c-1.4,0-2.414.72-2.414,1.92,0,1.081.679,1.654,1.96,1.76l1.08.094c.761.066,1.095.387,1.095.961,0,.774-.667,1.161-1.748,1.161a2.681,2.681,0,0,1-2.041-.761l-.64.641a3.616,3.616,0,0,0,2.694.946c1.588,0,2.667-.733,2.667-2C224.631,289.314,223.846,288.875,222.7,288.768Zm-47.1,0-1.054-.093c-.827-.067-1.148-.4-1.148-.961,0-.667.507-1.081,1.468-1.081a2.8,2.8,0,0,1,1.748.521l.626-.627a3.715,3.715,0,0,0-2.361-.706c-1.4,0-2.414.72-2.414,1.92,0,1.081.679,1.654,1.96,1.76l1.081.094c.76.066,1.094.387,1.094.961,0,.774-.667,1.161-1.748,1.161a2.683,2.683,0,0,1-2.041-.761l-.64.641a3.618,3.618,0,0,0,2.694.946c1.588,0,2.667-.733,2.667-2C177.531,289.314,176.745,288.875,175.6,288.768Zm77.515-4.724h1.078v-1.078h-1.078ZM238.544,286.7v-.8h-.959v6.561h.959v-4.028a1.6,1.6,0,0,1,1.574-1.761,1.372,1.372,0,0,1,1.134.48l.707-.72a2.021,2.021,0,0,0-1.574-.613A2.2,2.2,0,0,0,238.544,286.7Zm8.431,4.469-1.787-5.268h-1.041l2.4,6.561h.854l2.415-6.561h-1.041Zm-16.127-5.348c-1.667,0-2.693,1.239-2.693,3.361,0,2.322,1.133,3.361,2.867,3.361a3.007,3.007,0,0,0,2.4-1.013l-.654-.574a2.156,2.156,0,0,1-1.721.748c-1.254,0-1.934-.828-1.934-2.27h4.429V289C233.542,287.047,232.542,285.82,230.848,285.82Zm-1.734,2.895a2.752,2.752,0,0,1,.2-1.094,1.685,1.685,0,0,1,3.068,0,2.753,2.753,0,0,1,.2,1.094Zm-45.367-2.895c-1.667,0-2.693,1.239-2.693,3.361,0,2.322,1.133,3.361,2.867,3.361a3.006,3.006,0,0,0,2.4-1.013l-.654-.574a2.153,2.153,0,0,1-1.721.748c-1.254,0-1.935-.828-1.935-2.27h4.429V289C186.441,287.047,185.441,285.82,183.747,285.82Zm-1.734,2.895a2.769,2.769,0,0,1,.2-1.094,1.685,1.685,0,0,1,3.068,0,2.751,2.751,0,0,1,.2,1.094Zm79.075-2.042a1.8,1.8,0,0,1,1.507.734l.654-.614a2.6,2.6,0,0,0-2.161-.973c-1.654,0-2.906,1.119-2.906,3.361s1.252,3.361,2.906,3.361a2.6,2.6,0,0,0,2.161-.973l-.654-.627a1.816,1.816,0,0,1-1.507.747,1.78,1.78,0,0,1-1.521-.747,3.849,3.849,0,0,1,0-3.522A1.778,1.778,0,0,1,261.088,286.673Zm-51.875,3.269a1.552,1.552,0,0,1-1.641,1.746c-.988,0-1.6-.587-1.6-1.746V285.9h-.959v4.187a2.448,2.448,0,0,0,.667,1.841,2.335,2.335,0,0,0,1.694.614,2.408,2.408,0,0,0,1.855-.814v.733h.946V285.9h-.959Zm-9.5-3.283a2.113,2.113,0,0,0-1.855-.839,2.29,2.29,0,0,0-1.6.573,5.263,5.263,0,0,0,0,5.576,2.29,2.29,0,0,0,1.6.573,2.127,2.127,0,0,0,1.868-.866v.786h.946v-9.5h-.959Zm-1.641,5.031c-1.428,0-1.655-1.228-1.655-2.509s.227-2.509,1.655-2.509,1.641,1.228,1.641,2.509S199.5,291.69,198.074,291.69Zm-95.616-8.723h-1.013v9.5h5.868v-.906h-4.856Z" transform="translate(-21.575 -67.859)" fill="#000f17"/>
  </g>
</svg>
