<svg id="materiel" xmlns="http://www.w3.org/2000/svg" width="114" height="62.655" viewBox="0 0 114 62.655">
  <g id="Groupe_18" data-name="Groupe 18" transform="translate(26.787 44.289)">
    <g id="Groupe_12" data-name="Groupe 12" transform="translate(11.621 1.146)">
      <path id="Tracé_3713" data-name="Tracé 3713" d="M70.054,279.266a4.6,4.6,0,1,1-4.6,4.6,4.607,4.607,0,0,1,4.6-4.6Zm0-3.437a8.038,8.038,0,1,0,8.037,8.037,8.037,8.037,0,0,0-8.037-8.037Z" transform="translate(-62.017 -275.829)" fill="#fff"/>
    </g>
    <g id="Groupe_13" data-name="Groupe 13" transform="translate(27.694 1.146)">
      <path id="Tracé_3714" data-name="Tracé 3714" d="M81.279,279.266a4.6,4.6,0,1,1-4.6,4.6,4.605,4.605,0,0,1,4.6-4.6Zm0-3.437a8.038,8.038,0,1,0,8.038,8.037,8.039,8.039,0,0,0-8.038-8.037Z" transform="translate(-73.241 -275.829)" fill="#fff"/>
    </g>
    <g id="Groupe_14" data-name="Groupe 14" transform="translate(43.771 1.146)">
      <path id="Tracé_3715" data-name="Tracé 3715" d="M92.5,279.266a4.6,4.6,0,1,1-4.6,4.6,4.605,4.605,0,0,1,4.6-4.6Zm0-3.437a8.038,8.038,0,1,0,8.037,8.037,8.037,8.037,0,0,0-8.037-8.037Z" transform="translate(-84.467 -275.829)" fill="#fff"/>
    </g>
    <g id="Groupe_15" data-name="Groupe 15" transform="translate(59.844 1.146)">
      <path id="Tracé_3716" data-name="Tracé 3716" d="M103.729,279.266a4.6,4.6,0,1,1-4.6,4.6,4.606,4.606,0,0,1,4.6-4.6Zm0-3.437a8.038,8.038,0,1,0,8.037,8.037,8.039,8.039,0,0,0-8.037-8.037Z" transform="translate(-95.691 -275.829)" fill="#fff"/>
    </g>
    <g id="Groupe_16" data-name="Groupe 16" transform="translate(75.592 1.146)">
      <path id="Tracé_3717" data-name="Tracé 3717" d="M111.926,278.07a3,3,0,1,1-3,3,3,3,0,0,1,3-3Zm0-2.241a5.238,5.238,0,1,0,5.237,5.237,5.239,5.239,0,0,0-5.237-5.237Z" transform="translate(-106.688 -275.829)" fill="#fff"/>
    </g>
    <g id="Groupe_17" data-name="Groupe 17" transform="translate(1.146 1.146)">
      <path id="Tracé_3718" data-name="Tracé 3718" d="M59.939,278.07a3,3,0,1,1-3,3,3,3,0,0,1,3-3Zm0-2.241a5.238,5.238,0,1,0,5.238,5.237,5.237,5.237,0,0,0-5.238-5.237Z" transform="translate(-54.702 -275.829)" fill="#fff"/>
    </g>
    <path id="Tracé_3719" data-name="Tracé 3719" d="M123.931,293.4H71.087a18.071,18.071,0,0,1-8.992-2.84l-3.954-2.774a10.438,10.438,0,0,1-4.239-7.587,5.475,5.475,0,0,1,5.728-5.165h75.757a5.474,5.474,0,0,1,5.728,5.165,10.443,10.443,0,0,1-4.239,7.587l-3.954,2.774A18.071,18.071,0,0,1,123.931,293.4ZM59.63,277.32a3.2,3.2,0,0,0-3.437,2.874,8.306,8.306,0,0,0,3.264,5.712l3.954,2.775a15.957,15.957,0,0,0,7.676,2.422h52.844a15.962,15.962,0,0,0,7.676-2.422l3.954-2.775a8.3,8.3,0,0,0,3.264-5.712,3.2,3.2,0,0,0-3.437-2.874Z" transform="translate(-53.902 -275.029)" fill="#fff"/>
  </g>
  <g id="Groupe_19" data-name="Groupe 19">
    <path id="Tracé_3720" data-name="Tracé 3720" d="M124.969,279.074h-.236V256.512a2.291,2.291,0,0,0-2.291-2.291H98.459a2.284,2.284,0,0,0-2.2,1.7h-2.38v-10.9a.916.916,0,0,0-.917-.915H73.407a1.661,1.661,0,0,0-1.342.811l-8.316,15.864a4.439,4.439,0,0,0-.425,1.728v16.569h-.236a2.293,2.293,0,0,0-2.291,2.293v2.341A2.292,2.292,0,0,0,63.087,286h61.882a2.292,2.292,0,0,0,2.293-2.291v-2.341A2.293,2.293,0,0,0,124.969,279.074ZM91.125,261.589H66.43l7.723-14.737H91.125Zm5.041,16.341H93.875V258.206h2.291Zm23.055-1.519H101.68a1.146,1.146,0,0,1,0-2.291h17.541a1.146,1.146,0,0,1,0,2.291Zm0-5.744H101.68a1.146,1.146,0,1,1,0-2.291h17.541a1.146,1.146,0,0,1,0,2.291Zm0-5.745H101.68a1.146,1.146,0,0,1,0-2.293h17.541a1.146,1.146,0,0,1,0,2.293Zm0-5.744H101.68a1.146,1.146,0,0,1,0-2.293h17.541a1.146,1.146,0,0,1,0,2.293Z" transform="translate(-24.137 -244.102)" fill="#fff"/>
    <path id="Tracé_3721" data-name="Tracé 3721" d="M50.85,255.946a5.8,5.8,0,1,0-5.794-5.8A5.8,5.8,0,0,0,50.85,255.946Zm0-9.028a3.232,3.232,0,1,1-3.231,3.232A3.235,3.235,0,0,1,50.85,246.918Z" transform="translate(-30.937 -243.993)" fill="#fff"/>
    <path id="Tracé_3722" data-name="Tracé 3722" d="M58.432,261.5H44.992a6.893,6.893,0,0,1-5.9,6.5,9.7,9.7,0,0,0,15.594,2.638l6.476-6.381V261.5l-2.725-3.4Z" transform="translate(-33.516 -238.057)" fill="#fff"/>
    <path id="Tracé_3723" data-name="Tracé 3723" d="M44.4,261.64a4.6,4.6,0,1,0-4.6,4.6A4.6,4.6,0,0,0,44.4,261.64Zm-4.6,2.566a2.566,2.566,0,1,1,2.566-2.566A2.57,2.57,0,0,1,39.8,264.206Z" transform="translate(-35.197 -238.513)" fill="#fff"/>
    <path id="Tracé_3724" data-name="Tracé 3724" d="M44.9,263.138l6.86-7.6a8.118,8.118,0,0,1-5.954-5.375l-6.858,7.6A6.9,6.9,0,0,1,44.9,263.138Z" transform="translate(-33.575 -241.483)" fill="#fff"/>
    <path id="Tracé_3725" data-name="Tracé 3725" d="M50.525,256.82l14.946,11.774V261.25a6.708,6.708,0,0,1,.685-2.788l3.138-5.985-12.979-5.469a8.037,8.037,0,0,1-5.79,9.812Z" transform="translate(-28.574 -242.846)" fill="#fff"/>
  </g>
</svg>
