<svg xmlns="http://www.w3.org/2000/svg" width="62" height="62" viewBox="0 0 62 62">
  <g id="paris-icon" transform="translate(-1358 -3561)">
    <g id="Ellipse_8" data-name="Ellipse 8" transform="translate(1358 3561)" fill="none" stroke="#fff" stroke-width="1">
      <circle cx="31" cy="31" r="31" stroke="none"/>
      <circle cx="31" cy="31" r="30.5" fill="none"/>
    </g>
    <g id="construction-digger-excavate-svgrepo-com" transform="translate(1219.22 3358.191)">
      <path id="Tracé_3747" data-name="Tracé 3747" d="M153.644,242.033a3.74,3.74,0,0,0,3.735,3.735h26.8a3.735,3.735,0,0,0,.942-7.35v-1.964h1.39a.785.785,0,0,0,.785-.785v-4.416a.785.785,0,0,0-.785-.785H176.407a.785.785,0,0,1-.785-.785v-3.516a1.955,1.955,0,0,0-.555-1.364l-.75-.77a1.955,1.955,0,0,0-1.4-.591h-1.7L162.736,218a.97.97,0,0,0-1.1.039l-.653.487a.97.97,0,0,0-.13,1.439l3.547,3.809,1.96.743-4.526,4.411a2.036,2.036,0,0,0-.579,1.076l-.8,4.175a.785.785,0,0,1-.771.638.785.785,0,0,0-.785.785v.062a.785.785,0,0,0,.785.785h2.486V238.3h-4.791A3.74,3.74,0,0,0,153.644,242.033Zm26.746-10.15h4a.421.421,0,1,1,0,.841h-4a.421.421,0,1,1,0-.841Zm0,1.744h4a.421.421,0,1,1,0,.841h-4a.421.421,0,1,1,0-.841Zm-18.738.873c.007-.028.014-.056.019-.085l.8-4.175a.8.8,0,0,1,.227-.422l5.063-4.935a.714.714,0,0,1,.5-.2h4.658l.056,0a.187.187,0,0,1,.162.24l-1.36,4.684a4.383,4.383,0,0,1-1.58,2.285l-.957.718a4.384,4.384,0,0,0-1.072,1.159l-.864,1.362a.188.188,0,0,1-.159.087h-1.875l1.234-1.234a.833.833,0,0,0,.093.006.826.826,0,1,0-.817-.73l-1.958,1.958h-1.438l4.276-4.276.646.646a.512.512,0,1,0,.724-.724l-1.841-1.841a.512.512,0,0,0-.724.724l.471.471Zm-4.272,5.035h26.8a2.5,2.5,0,0,1,0,5h-26.8a2.5,2.5,0,0,1,0-5Z" transform="translate(0)" fill="#ffd400"/>
      <circle id="Ellipse_20" data-name="Ellipse 20" cx="1.479" cy="1.479" r="1.479" transform="matrix(0.122, -0.993, 0.993, 0.122, 156.268, 243.32)" fill="#ffd400"/>
      <circle id="Ellipse_21" data-name="Ellipse 21" cx="1.479" cy="1.479" r="1.479" transform="translate(160.113 240.555)" fill="#ffd400"/>
      <circle id="Ellipse_22" data-name="Ellipse 22" cx="1.479" cy="1.479" r="1.479" transform="translate(163.788 240.555)" fill="#ffd400"/>
      <circle id="Ellipse_23" data-name="Ellipse 23" cx="1.479" cy="1.479" r="1.479" transform="translate(167.464 240.555)" fill="#ffd400"/>
      <path id="Tracé_3748" data-name="Tracé 3748" d="M508.738,679.725a1.479,1.479,0,1,0-1.479-1.479A1.478,1.478,0,0,0,508.738,679.725Z" transform="translate(-336.121 -436.214)" fill="#ffd400"/>
      <circle id="Ellipse_24" data-name="Ellipse 24" cx="1.479" cy="1.479" r="1.479" transform="translate(174.815 240.555)" fill="#ffd400"/>
      <circle id="Ellipse_25" data-name="Ellipse 25" cx="1.479" cy="1.479" r="1.479" transform="translate(178.49 240.555)" fill="#ffd400"/>
      <path id="Tracé_3749" data-name="Tracé 3749" d="M731.609,679.725a1.479,1.479,0,1,0-1.479-1.479A1.478,1.478,0,0,0,731.609,679.725Z" transform="translate(-547.964 -436.214)" fill="#ffd400"/>
      <path id="Tracé_3750" data-name="Tracé 3750" d="M202.856,271.977v1.3a1.547,1.547,0,0,0,2.34,1.328l.975-.582a2.931,2.931,0,0,0-1.2-1.476l-.278-.173-.012-.063a4.009,4.009,0,0,0-.7-1.627l.6-3.144a.62.62,0,0,0,.685-.616.6.6,0,0,0-.009-.106l-.193-1.124a1.726,1.726,0,0,1,.779-1.753l2.3-1.452-1.128-1.212a1.809,1.809,0,0,1-.36-.572L203.81,263.4a1.726,1.726,0,0,0-.435,1.843l.564,1.552-.85,3.769A4.422,4.422,0,0,0,202.856,271.977Z" transform="translate(-46.777 -40.733)" fill="#ffd400"/>
    </g>
  </g>
</svg>
