<svg xmlns="http://www.w3.org/2000/svg" width="61" height="62" viewBox="0 0 61 62">
  <g id="paris-icon-3" transform="translate(-1505 -3561)">
    <g id="Ellipse_10" data-name="Ellipse 10" transform="translate(1505 3561)" fill="none" stroke="#fff" stroke-width="1">
      <ellipse cx="30.5" cy="31" rx="30.5" ry="31" stroke="none"/>
      <ellipse cx="30.5" cy="31" rx="30" ry="30.5" fill="none"/>
    </g>
    <g id="excavators-svgrepo-com" transform="translate(1518.667 3497.067)">
      <g id="Groupe_56" data-name="Groupe 56" transform="translate(0 80.866)">
        <g id="Groupe_55" data-name="Groupe 55" transform="translate(0 0)">
          <path id="Tracé_3754" data-name="Tracé 3754" d="M32.884,85.548a1.37,1.37,0,0,0-1.116-.575H26.5a1.37,1.37,0,0,0-1.27.856l-3.571,8.815H18.45L17.1,82.09a1.37,1.37,0,0,0-1.363-1.224H1.37a1.37,1.37,0,0,0,0,2.741h.6V94.785A1.368,1.368,0,0,0,0,96.014V99.03a1.369,1.369,0,0,0,.782,1.236,4.6,4.6,0,0,1,3.153-1.247H18.919l-.175-1.635h3.843a1.37,1.37,0,0,0,1.27-.856l3.571-8.815h3.633l.9,1.265h3.366ZM6.333,91.879H4.713V83.607h1.62Zm2.741,0V83.607H14.51l.887,8.273Z" transform="translate(0 -80.866)" fill="#ffd400"/>
        </g>
      </g>
      <g id="Groupe_58" data-name="Groupe 58" transform="translate(32.236 90.349)">
        <g id="Groupe_57" data-name="Groupe 57" transform="translate(0 0)">
          <path id="Tracé_3755" data-name="Tracé 3755" d="M433.83,208.487h0v3.491a12.082,12.082,0,0,1,5.808,5.393v-8.884Z" transform="translate(-433.83 -208.487)" fill="#ffd400"/>
        </g>
      </g>
      <g id="Groupe_60" data-name="Groupe 60" transform="translate(0.683 100.39)">
        <g id="Groupe_59" data-name="Groupe 59" transform="translate(0 0)">
          <path id="Tracé_3756" data-name="Tracé 3756" d="M35.714,343.617H12.445a3.252,3.252,0,1,0,0,6.5h23.27a3.252,3.252,0,0,0,0-6.5Zm-22.956,4.564a1.312,1.312,0,1,1,1.312-1.312A1.312,1.312,0,0,1,12.759,348.181Zm22.812,0a1.312,1.312,0,1,1,1.312-1.312A1.312,1.312,0,0,1,35.571,348.181Z" transform="translate(-9.193 -343.617)" fill="#ffd400"/>
        </g>
      </g>
    </g>
  </g>
</svg>
