<svg xmlns="http://www.w3.org/2000/svg" width="62" height="62" viewBox="0 0 62 62">
  <g id="paris-icon-2" transform="translate(-1431 -3561)">
    <g id="Ellipse_9" data-name="Ellipse 9" transform="translate(1431 3561)" fill="none" stroke="#fff" stroke-width="1">
      <circle cx="31" cy="31" r="31" stroke="none"/>
      <circle cx="31" cy="31" r="30.5" fill="none"/>
    </g>
    <g id="construction-tool-vehicle-with-crane-lifting-materials-svgrepo-com" transform="translate(1440.192 3571.801)">
      <g id="iconos_42_" transform="translate(5.475)">
        <path id="Tracé_3751" data-name="Tracé 3751" d="M208.795,379.191v-2.344a2.307,2.307,0,0,0-2.524-2.524H190.407c-2.141,0-3.245,1.014-3.245,2.524v3.042c0,1.577,1.059,2.366,3.245,2.366h15.864C207.864,382.256,208.795,381.2,208.795,379.191Zm-2.884.18H190.046v-2.163H205.91Z" transform="translate(-173.461 -346.097)" fill="#ffd400"/>
        <path id="Tracé_3752" data-name="Tracé 3752" d="M34.685,11.642v6.9h0l.919,2.472H34.058L18.974,0,15.651,2l1.007,1.766v9.314H15.594l.715,5.048h.349v1.525a2.2,2.2,0,0,0-1.37,2.065,2.137,2.137,0,0,0,.733,1.693l-3.91,3.37h1.1L16.679,23.8a2.71,2.71,0,0,0,.981.19,2.036,2.036,0,0,0,.963-.25l3.755,3.044H23.5l.008-.01-4.319-3.5a2.181,2.181,0,0,0,.487-1.431.721.721,0,1,0-1.442,0,.765.765,0,0,1-.162.526l-.2-.16a.36.36,0,0,0-.462.007l-.27.233a.721.721,0,0,1-.414-.726.886.886,0,0,1,.769-.833.723.723,0,0,0,.6-.712V18.132h.8l1.009-5.048H18.821V7.85L27.475,24.5v.839h2.884v1.442H41.175V25.343H45.5v-13.7Zm-6.237,3.75.009.012-2.942,1.915,1.513-3.881ZM18.1,13.084h-.721V5.131l.721,1.36Zm.627-7.351L17.483,3.37l1.94-1.276Zm1.687-2.167,1.383,2.4L19.566,7.4Zm.221,5.216,2.1-1.368-.823,3.746Zm2.993-.146L25.18,10.9l-2.332,1.493Zm-.239,5.479L26,12.331l-1.484,3.975Zm3.857,6.857L25.99,18.755l3.12-2.228Zm.979,1.576,2.133-4.6,1.735,2.366Zm14.392-3.7H37.57V14.526h5.048Z" transform="translate(-11.611)" fill="#ffd400"/>
        <path id="Tracé_3753" data-name="Tracé 3753" d="M6.2,368.367H5.475v1.442H17.012v-1.442H15.57V366.2h1.442v-1.442H5.475V366.2H6.917v2.163Z" transform="translate(-5.475 -337.256)" fill="#ffd400"/>
      </g>
    </g>
  </g>
</svg>
