<svg xmlns="http://www.w3.org/2000/svg" width="50.159" height="52.74" viewBox="0 0 50.159 52.74">
  <g id="puissance-icon" transform="translate(-4630.9 -2197.41)">
    <g id="Groupe_474" data-name="Groupe 474" transform="translate(4649.654 2212.434)">
      <path id="Tracé_3849" data-name="Tracé 3849" d="M4689.226,2243.569l-5.745-.04,1.157-9.529-8.062,13.122,5.746.04-1.157,9.53Z" transform="translate(-4676.576 -2234)" fill="#ffd400"/>
    </g>
    <path id="Tracé_3850" data-name="Tracé 3850" d="M4667.931,2254.337a16.753,16.753,0,1,1,16.753-16.753A16.772,16.772,0,0,1,4667.931,2254.337Zm0-32.274a15.521,15.521,0,1,0,15.521,15.521A15.539,15.539,0,0,0,4667.931,2222.063Z" transform="translate(-11.952 -13.804)" fill="#263135"/>
    <path id="Tracé_3851" data-name="Tracé 3851" d="M4660.3,2250.149h-8.64a.616.616,0,0,1-.592-.445l-.4-1.4a10.871,10.871,0,0,0-5.111-6.4l-.088-.051a10.812,10.812,0,0,0-8.063-1.212l-1.417.351a.615.615,0,0,1-.681-.29l-4.32-7.482a.617.617,0,0,1,.089-.735l1.012-1.052a10.812,10.812,0,0,0,2.982-7.586v-.1a10.872,10.872,0,0,0-2.982-7.626l-1.011-1.05a.617.617,0,0,1-.09-.735l4.32-7.482a.615.615,0,0,1,.681-.29l1.418.351a10.849,10.849,0,0,0,8.082-1.222l.04-.023.04-.023a10.85,10.85,0,0,0,5.1-6.387l.406-1.4a.616.616,0,0,1,.592-.445h8.64a.615.615,0,0,1,.592.445l.4,1.4a10.874,10.874,0,0,0,5.111,6.4l.092.052a10.808,10.808,0,0,0,8.061,1.211l1.417-.351a.616.616,0,0,1,.681.29l4.319,7.482a.616.616,0,0,1-.089.735l-1.012,1.051a10.816,10.816,0,0,0-2.982,7.587v.1a10.868,10.868,0,0,0,2.983,7.625l1.011,1.051a.616.616,0,0,1,.089.735l-4.319,7.482a.616.616,0,0,1-.681.29l-1.419-.352a10.853,10.853,0,0,0-8.082,1.222l-.059.034a10.864,10.864,0,0,0-5.12,6.4l-.405,1.4A.615.615,0,0,1,4660.3,2250.149Zm-8.176-1.232h7.713l.277-.959a12.075,12.075,0,0,1,5.669-7.114l.043-.025a12.1,12.1,0,0,1,9.027-1.371l.969.24,3.856-6.68-.689-.717a12.089,12.089,0,0,1-3.327-8.481v-.1a12.034,12.034,0,0,1,3.326-8.443h0l.69-.718-3.856-6.68-.967.239a12.033,12.033,0,0,1-8.976-1.342l-.083-.047a12.1,12.1,0,0,1-5.684-7.124l-.276-.956h-7.713l-.277.959a12.078,12.078,0,0,1-5.669,7.114l-.345-.512.309.533-.039.022a12.077,12.077,0,0,1-9,1.352l-.969-.24-3.856,6.68.689.717a12.1,12.1,0,0,1,3.327,8.481v.093a12.04,12.04,0,0,1-3.327,8.449l-.69.718,3.856,6.68.967-.24a12.036,12.036,0,0,1,8.976,1.342l.083.047a12.1,12.1,0,0,1,5.684,7.123Z" fill="#263135"/>
  </g>
</svg>
