<svg xmlns="http://www.w3.org/2000/svg" width="131" height="81.896" viewBox="0 0 131 81.896">
  <g id="quote" transform="translate(-266.467 -393.987)">
    <path id="Tracé_3815" data-name="Tracé 3815" d="M413.272,444.857a31.026,31.026,0,1,0,29.121-30.93c1.23-5.951,4.274-11.809,7.227-16.394a2.283,2.283,0,0,0-3.188-3.14C429.063,406.022,413.272,424.2,413.272,444.857Z" transform="translate(-77.858)" fill="#f4f4f4"/>
    <path id="Tracé_3816" data-name="Tracé 3816" d="M266.467,444.857a31.026,31.026,0,1,0,29.121-30.93c1.231-5.951,4.274-11.809,7.227-16.394a2.283,2.283,0,0,0-3.188-3.14C282.258,406.022,266.467,424.2,266.467,444.857Z" fill="#f4f4f4"/>
  </g>
</svg>
