<svg xmlns="http://www.w3.org/2000/svg" width="50.967" height="56.5" viewBox="0 0 50.967 56.5">
  <g id="security-icon" transform="translate(-3708.205 -1336.137)">
    <path id="Tracé_3852" data-name="Tracé 3852" d="M3733.688,1392.637a.68.68,0,0,1-.131-.012,37.158,37.158,0,0,1-9.008-3.225c-6.3-3.2-10.635-7.754-12.529-13.172-.036-.091-1.083-2.866.338-8.178a26.077,26.077,0,0,0,.938-7.7c-.166-4.385-1.162-10.783-4.968-16.358a.708.708,0,0,1,.04-.851c.217-.261,5.432-6.4,16.058-7a.71.71,0,0,1,.571.239,12.586,12.586,0,0,0,8.691,3.771,13.024,13.024,0,0,0,8.7-3.783.7.7,0,0,1,.56-.227c10.626.6,15.841,6.738,16.058,7a.708.708,0,0,1,.04.851c-3.806,5.576-4.8,11.973-4.969,16.358a26.091,26.091,0,0,0,.938,7.7c1.421,5.312.374,8.087.329,8.2-1.886,5.394-6.218,9.948-12.52,13.148a37.151,37.151,0,0,1-9.008,3.225A.674.674,0,0,1,3733.688,1392.637Zm-23.876-48.975a33.038,33.038,0,0,1,4.9,16.632,27.5,27.5,0,0,1-.985,8.123c-1.288,4.809-.386,7.3-.377,7.325,4.1,11.716,18.788,15.136,20.339,15.466,1.549-.33,16.247-3.763,20.332-15.446.016-.045.917-2.535-.369-7.344a27.485,27.485,0,0,1-.985-8.123h0a33.032,33.032,0,0,1,4.9-16.632,18.572,18.572,0,0,0-3.391-2.656,23.89,23.89,0,0,0-10.986-3.434,14.189,14.189,0,0,1-9.5,3.993,13.817,13.817,0,0,1-9.507-3.992A22.424,22.424,0,0,0,3709.812,1343.661Z" fill="#263135"/>
    <path id="Tracé_3853" data-name="Tracé 3853" d="M3740.466,1393.266a.706.706,0,0,1-.177-.023c-3.206-.83-13.91-4.223-17.026-13.069a.708.708,0,0,1-.022-.075,11.7,11.7,0,0,1,.453-5.357,30.78,30.78,0,0,0,1.1-9.1,38.035,38.035,0,0,0-3.677-15.23.708.708,0,0,1,.248-.907,20.071,20.071,0,0,1,8.173-2.991.708.708,0,0,1,.536.144,16.81,16.81,0,0,0,10.4,3.683,17.012,17.012,0,0,0,10.37-3.691.713.713,0,0,1,.53-.141,20.076,20.076,0,0,1,8.2,3,.707.707,0,0,1,.247.907,38.07,38.07,0,0,0-3.676,15.23,30.818,30.818,0,0,0,1.1,9.1,12.23,12.23,0,0,1,.479,5.235c0,.016-.007.033-.011.049s0,.029-.009.044-.014.058-.019.076c-3.124,8.873-13.828,12.267-17.034,13.1A.7.7,0,0,1,3740.466,1393.266Zm-15.853-13.521c2.847,8,12.625,11.223,15.853,12.081,3.191-.849,12.78-4,15.751-11.805a.711.711,0,0,1,.078-.31l.046-.09a11.354,11.354,0,0,0-.472-4.512,32.228,32.228,0,0,1-1.142-9.52,39.776,39.776,0,0,1,3.544-15.228,18.8,18.8,0,0,0-6.81-2.407,18.346,18.346,0,0,1-10.995,3.8,18.162,18.162,0,0,1-11.028-3.8,18.787,18.787,0,0,0-6.778,2.4,39.751,39.751,0,0,1,3.543,15.228,32.163,32.163,0,0,1-1.142,9.52A10.672,10.672,0,0,0,3724.612,1379.745Z" transform="translate(-6.777 -5.474)" fill="#263135"/>
    <path id="Tracé_3855" data-name="Tracé 3855" d="M3760.89,1398.39h-8.779a.708.708,0,0,1,0-1.416h8.779a.708.708,0,0,1,0,1.416Z" transform="translate(-22.812 -32.127)" fill="#263135"/>
    <path id="Tracé_3856" data-name="Tracé 3856" d="M3759.131,1359.2a38.13,38.13,0,0,1,1.281-3.736,17.051,17.051,0,0,0-3.561-1.128,19.9,19.9,0,0,1-23.048.008,17.017,17.017,0,0,0-3.523,1.12,38.038,38.038,0,0,1,1.281,3.737,26.81,26.81,0,0,0,27.571,0Z" transform="translate(-11.657 -9.612)" fill="#ffd400"/>
  </g>
</svg>
