<svg xmlns="http://www.w3.org/2000/svg" width="73.705" height="60.209" viewBox="0 0 73.705 60.209">
  <g id="service" transform="translate(0)">
    <path id="Tracé_3727" data-name="Tracé 3727" d="M187.662,440.235c-.037,0-.073,0-.109,0a6.46,6.46,0,0,1-2.738-.321c-.7-.3-1.046-.991-2.015-1.925-.825-.793-2.3-1.6-2.665-2.468a14.854,14.854,0,0,1-.521-3.729c-.765.421-1.584-1.768-1.746-2.486-.24-1.059-1-2.862-1.241-4.071a3.432,3.432,0,0,1-.065-.529c3.192,1.584,8.979,1.693,10.948,1.691s7.719-.12,10.915-1.691a3.407,3.407,0,0,1-.064.529c-.238,1.209-1,3.012-1.241,4.071-.161.709-.963,2.857-1.72,2.5a14.128,14.128,0,0,1-.5,3.636c-.359.869-1.828,1.689-2.647,2.491-.965.945-1.305,1.637-2.005,1.948a6.075,6.075,0,0,1-2.584.352Zm7.55,2.977c7.192,4.887,16.779,2.726,17.689,12.476.019.2.032,9.151.04,12.091H189.723l5.489-24.567ZM177.157,420.67c-.836,0-1.519.33-1.519,1.265,0,4.307,23.736,4.266,23.736,0,0-.935-.684-1.265-1.52-1.265Zm10.349-13.1c6.065,0,11.007,5.894,11.226,11.954a3.611,3.611,0,0,0-.878-.1h-20.7a3.623,3.623,0,0,0-.878.1c.22-6.06,5.162-11.954,11.227-11.954Zm3.3,1.317a14.821,14.821,0,0,0-6.593,0l2.469,7.4h1.655l2.469-7.4Zm-3.112,35.471-.376-.01-2.007,2.967.05.755,1.662,1.687-1.862,3,.7,15.027h3.373l.624-15.013-1.862-3,1.661-1.686.051-.755-2.014-2.971Zm-7.9-1.146,5.488,24.567H162.06c.007-2.94.021-11.891.039-12.091C163.009,445.938,172.6,448.1,179.789,443.212Z" transform="translate(-162.06 -407.57)" fill="#fff" fill-rule="evenodd"/>
    <path id="Tracé_3728" data-name="Tracé 3728" d="M560.055,363.925a25.276,25.276,0,0,1-10.845-4.282,3.865,3.865,0,0,0-4.46.033,24.257,24.257,0,0,1-10.883,4.262,3.845,3.845,0,0,0-3.322,3.82v2.528c0,18.983,11.542,24.1,15.267,25.262a3.852,3.852,0,0,0,2.289,0c3.726-1.158,15.267-6.279,15.267-25.262v-2.542A3.852,3.852,0,0,0,560.055,363.925Zm-4.829,8-9.507,12.324a1.99,1.99,0,0,1-1.448.77c-.043,0-.085,0-.128,0a1.989,1.989,0,0,1-1.407-.583l-3.881-3.881a1.989,1.989,0,0,1,2.813-2.813l2.281,2.281,8.125-10.532a1.99,1.99,0,1,1,3.151,2.43Z" transform="translate(-489.664 -355.951)" fill="#fff"/>
  </g>
</svg>
