<svg xmlns="http://www.w3.org/2000/svg" xmlns:xlink="http://www.w3.org/1999/xlink" width="233" height="64" viewBox="0 0 233 64">
  <defs>
    <clipPath id="clip-path">
      <rect id="Rectangle_530" data-name="Rectangle 530" width="233" height="64" transform="translate(0 0)" fill="#fff" stroke="#707070" stroke-width="1"/>
    </clipPath>
  </defs>
  <g id="sperator-long-2" transform="translate(0 0)" clip-path="url(#clip-path)">
    <g id="Groupe_4289" data-name="Groupe 4289" transform="translate(13.895 -28.955)">
      <g id="Groupe_4287" data-name="Groupe 4287" transform="matrix(-0.951, -0.309, 0.309, -0.951, 111.828, 114.093)">
        <path id="Tracé_7135" data-name="Tracé 7135" d="M10.088,47.626,0,50.9,12.5,3.277,22.584,0Z" transform="translate(0 30.856)" fill="#ffd400"/>
        <path id="Tracé_7136" data-name="Tracé 7136" d="M10.088,47.626,0,50.9,12.5,3.277,22.584,0Z" transform="translate(19 24.685)" fill="#ffd400"/>
        <path id="Tracé_7137" data-name="Tracé 7137" d="M10.088,47.626,0,50.9,12.5,3.277,22.584,0Z" transform="translate(38 18.514)" fill="#ffd400"/>
        <path id="Tracé_7138" data-name="Tracé 7138" d="M10.088,47.626,0,50.9,12.5,3.277,22.584,0Z" transform="translate(56.999 12.343)" fill="#ffd400"/>
        <path id="Tracé_7139" data-name="Tracé 7139" d="M10.088,47.626,0,50.9,12.5,3.277,22.584,0Z" transform="translate(75.999 6.171)" fill="#ffd400"/>
        <path id="Tracé_7140" data-name="Tracé 7140" d="M10.088,47.626,0,50.9,12.5,3.277,22.584,0Z" transform="translate(94.999 0)" fill="#ffd400"/>
      </g>
      <g id="Groupe_4288" data-name="Groupe 4288" transform="matrix(-0.951, -0.309, 0.309, -0.951, 231.147, 114.093)">
        <path id="Tracé_7141" data-name="Tracé 7141" d="M10.088,47.626,0,50.9,12.5,3.277,22.584,0Z" transform="translate(0 30.856)" fill="#ffd400"/>
        <path id="Tracé_7142" data-name="Tracé 7142" d="M10.088,47.626,0,50.9,12.5,3.277,22.584,0Z" transform="translate(19 24.685)" fill="#ffd400"/>
        <path id="Tracé_7143" data-name="Tracé 7143" d="M10.088,47.626,0,50.9,12.5,3.277,22.584,0Z" transform="translate(38 18.514)" fill="#ffd400"/>
        <path id="Tracé_7144" data-name="Tracé 7144" d="M10.088,47.626,0,50.9,12.5,3.277,22.584,0Z" transform="translate(56.999 12.343)" fill="#ffd400"/>
        <path id="Tracé_7145" data-name="Tracé 7145" d="M10.088,47.626,0,50.9,12.5,3.277,22.584,0Z" transform="translate(75.999 6.171)" fill="#ffd400"/>
        <path id="Tracé_7146" data-name="Tracé 7146" d="M10.088,47.626,0,50.9,12.5,3.277,22.584,0Z" transform="translate(94.999 0)" fill="#ffd400"/>
      </g>
    </g>
  </g>
</svg>
