<svg xmlns="http://www.w3.org/2000/svg" xmlns:xlink="http://www.w3.org/1999/xlink" width="233" height="64" viewBox="0 0 233 64">
  <defs>
    <clipPath id="clip-path">
      <rect id="Rectangle_529" data-name="Rectangle 529" width="233" height="64" transform="translate(0 0)" fill="#fff" stroke="#707070" stroke-width="1"/>
    </clipPath>
  </defs>
  <g id="sperator-long-1" transform="translate(0 0)" clip-path="url(#clip-path)">
    <g id="Groupe_4281" data-name="Groupe 4281" transform="translate(-37.307 -28.955)">
      <g id="Groupe_4279" data-name="Groupe 4279" transform="matrix(0.951, -0.309, 0.309, 0.951, 119.319, 36.335)">
        <path id="Tracé_7117" data-name="Tracé 7117" d="M10.088,3.277,0,0,12.5,47.626,22.584,50.9Z" transform="translate(0 0)" fill="#ffd400"/>
        <path id="Tracé_7118" data-name="Tracé 7118" d="M10.088,3.277,0,0,12.5,47.626,22.584,50.9Z" transform="translate(19 6.171)" fill="#ffd400"/>
        <path id="Tracé_7119" data-name="Tracé 7119" d="M10.088,3.277,0,0,12.5,47.626,22.584,50.9Z" transform="translate(38 12.343)" fill="#ffd400"/>
        <path id="Tracé_7120" data-name="Tracé 7120" d="M10.088,3.277,0,0,12.5,47.626,22.584,50.9Z" transform="translate(56.999 18.514)" fill="#ffd400"/>
        <path id="Tracé_7121" data-name="Tracé 7121" d="M10.088,3.277,0,0,12.5,47.626,22.584,50.9Z" transform="translate(75.999 24.685)" fill="#ffd400"/>
        <path id="Tracé_7122" data-name="Tracé 7122" d="M10.088,3.277,0,0,12.5,47.626,22.584,50.9Z" transform="translate(94.999 30.856)" fill="#ffd400"/>
      </g>
      <g id="Groupe_4280" data-name="Groupe 4280" transform="matrix(0.951, -0.309, 0.309, 0.951, 0, 36.335)">
        <path id="Tracé_7117-2" data-name="Tracé 7117" d="M10.088,3.277,0,0,12.5,47.626,22.584,50.9Z" transform="translate(0 0)" fill="#ffd400"/>
        <path id="Tracé_7118-2" data-name="Tracé 7118" d="M10.088,3.277,0,0,12.5,47.626,22.584,50.9Z" transform="translate(19 6.171)" fill="#ffd400"/>
        <path id="Tracé_7119-2" data-name="Tracé 7119" d="M10.088,3.277,0,0,12.5,47.626,22.584,50.9Z" transform="translate(38 12.343)" fill="#ffd400"/>
        <path id="Tracé_7120-2" data-name="Tracé 7120" d="M10.088,3.277,0,0,12.5,47.626,22.584,50.9Z" transform="translate(56.999 18.514)" fill="#ffd400"/>
        <path id="Tracé_7121-2" data-name="Tracé 7121" d="M10.088,3.277,0,0,12.5,47.626,22.584,50.9Z" transform="translate(75.999 24.685)" fill="#ffd400"/>
        <path id="Tracé_7122-2" data-name="Tracé 7122" d="M10.088,3.277,0,0,12.5,47.626,22.584,50.9Z" transform="translate(94.999 30.856)" fill="#ffd400"/>
      </g>
    </g>
  </g>
</svg>
